<?xml version="1.0" encoding="UTF-8"?>
<svg id="Layer_1" data-name="Layer 1" xmlns="http://www.w3.org/2000/svg" viewBox="0 0 1362.58 776.63">
  <defs>
    <style>
      .cls-1 {
        fill: #fefefe;
      }

      .cls-1, .cls-2 {
        stroke-width: 0px;
      }

      .cls-2 {
        fill: #fbde01;
      }
    </style>
  </defs>
  <path class="cls-1" d="m681.71,776.62c21.81.23,39.4-4.35,53.95-16.25,50.11-40.97,92.47-90.02,138.92-134.82,51.03-49.2,99.49-101.07,149.64-151.2,50.74-50.71,102.49-100.39,153.22-151.11,50.15-50.13,98.21-102.44,149.74-151.08,43.08-40.66,45.84-97.66,13.66-136.26-40.32-48.36-106.65-45.68-146.98-5.09-164.16,165.23-329.38,329.41-493.66,494.52-13.6,13.67-20.78,15.85-35.76.77C499.83,360.31,334.3,195.41,169.18,30.09c-13.88-13.9-29.75-23.86-48.82-27.67C77.16-6.22,32.32,11.76,14.64,46.86c-22.45,44.59-21.02,82.52,17.92,121.82,191.06,192.86,383.58,384.27,575.59,576.19,21.14,21.13,46.83,31.31,73.56,31.75Z"/>
  <path class="cls-2" d="m681.71,776.62c-26.74-.44-52.43-10.63-73.56-31.75C416.14,552.96,223.62,361.54,32.56,168.69-6.38,129.38-7.81,91.45,14.64,46.86,32.32,11.76,77.16-6.22,120.37,2.42c19.07,3.81,34.94,13.77,48.82,27.67,165.11,165.32,330.65,330.21,495.27,496.01,14.98,15.09,22.16,12.9,35.76-.77,164.28-165.11,329.5-329.29,493.66-494.52,40.32-40.59,106.66-43.27,146.98,5.09,32.18,38.6,29.42,95.6-13.66,136.26-51.54,48.64-99.59,100.95-149.74,151.08-50.73,50.71-102.49,100.4-153.22,151.11-50.16,50.13-98.61,102-149.64,151.2-46.46,44.79-88.81,93.85-138.92,134.82-14.55,11.9-32.14,16.48-53.95,16.25Z"/>
</svg>