<?xml version="1.0" encoding="UTF-8"?>
<svg id="Layer_1" data-name="Layer 1" xmlns="http://www.w3.org/2000/svg" viewBox="0 0 356.11 185.12">
  <defs>
    <style>
      .cls-1 {
        fill: #448ecc;
      }

      .cls-1, .cls-2, .cls-3, .cls-4, .cls-5 {
        stroke-width: 0px;
      }

      .cls-2 {
        fill: #ec1e25;
      }

      .cls-3 {
        fill: #ec1d25;
      }

      .cls-4 {
        fill: #448ecb;
      }

      .cls-5 {
        fill: #f9df08;
      }
    </style>
  </defs>
  <path class="cls-5" d="m146.79,37.8c2.79-.94,5.69-1.42,8.56-2.05.66-.15.79.16.89.64.37,1.71.81,3.42,1.11,5.14.16.92.51.98,1.33.64,1.51-.63,3.08-1.1,4.73-1.21.82-.05.86-.4.76-1-.25-1.49-.45-2.99-.71-4.48-.12-.69.07-.97.88-1.05,3.02-.3,6.04-.57,9.07-.71.79-.04,1.03.19.99.92-.07,1.35,0,2.71-.07,4.06-.04.73.21.88.93.8,2.14-.25,4.28-.41,6.43-.07.74.12.72-.36.73-.8.03-1.35.07-2.71.08-4.06,0-.68.25-1.02,1.04-.97,2.27.16,4.54.3,6.81.4.66.03.72.35.74.84.06,1.27.22,2.54.24,3.81.01.71.24,1.04,1.01,1.22,2.25.52,4.46,1.16,6.57,2.45.2-2.45.38-4.76.57-7.09,3.77.58,7.32,1.57,10.86,2.6-.56,3.58-1.09,7.15-1.67,10.73-1.06,6.52-2.13,13.04-3.2,19.55-.41-.09-.82-.17-1.23-.26-7.96-1.82-16.01-3.12-24.2-3.44-9.5-.36-18.82.89-27.99,3.23-1.17-6.58-2.34-13.16-3.5-19.74-.59-3.37-1.16-6.74-1.74-10.11Z"/>
  <path class="cls-2" d="m68.07,138.31c-.51.65-.95,1.33-1.5,1.91-2.67,2.81-6.2,3.21-9.86,2.92-4.73-.38-8.04-2.78-10.14-6.76-1.78-3.38-2.47-7-2.62-10.73-.24-6.09.24-12.08,2.97-17.74,3.38-7.01,9.23-10.72,17.25-11.53,4.6-.46,9.1-.22,13.28,1.91,3.98,2.03,5.85,5.79,4.93,9.93-.72,3.25-3.21,4.69-6.4,5.33-1.37.27-2.76.3-4.16.26-.85-.02-1.26-.35-1.38-1.2-.2-1.34-.03-2.71-.41-4.03-.47-1.67-1.27-2.31-3.1-2.43-3.41-.23-5.82,1.25-7.53,3.91-1.49,2.33-2.18,4.9-2.44,7.57-.35,3.53-.5,7.07.35,10.57.06.23.13.46.2.69,1.32,4.16,5.71,5.6,9.52,3.14,1.2-.77,1.73-1.91,1.96-3.21.38-2.2.44-4.43.91-6.62.27-1.25.93-1.75,2.27-1.68,1.39.08,2.78,0,4.18.02,2.62.06,3.94,1.19,4.31,3.63.52,3.46.07,6.91-.13,10.37-.13,2.22-.45,4.43-.67,6.65-.09.92-.46,1.44-1.6,1.36-1.43-.09-2.87,0-4.3-.03-3.21-.05-4.98-1.31-5.91-4.22Z"/>
  <path class="cls-2" d="m19.74,132.7c-1.65,0-3.29.03-4.94-.01-.67-.02-.94.18-1.09.83-.59,2.52-1.31,5.02-1.9,7.54-.25,1.09-.83,1.57-2.01,1.5-1.81-.11-3.63.16-5.42-.18-3.61-.7-4.95-2.61-4.16-6.04.81-3.54,2.01-6.98,3.27-10.39,3.24-8.78,6.87-17.41,10.79-25.93,1.06-2.3,2.38-3.54,5.2-3.16,1.69.23,3.45.07,5.18.04,2.14-.04,3.71.88,4.83,2.54.99,1.47,1.43,3.13,1.85,4.79,2.91,11.27,6.07,22.48,8.64,33.83.24,1.05.46,2.1.43,3.19-.03.82-.47,1.31-1.31,1.3-2.27-.03-4.55.17-6.82-.14-3.25-.45-5.09-2.29-5.79-5.22-.26-1.08-.44-2.19-.57-3.29-.1-.83-.33-1.26-1.37-1.19-1.6.1-3.2.03-4.81.03Zm1.64-25.8c-.06,0-.12.01-.18.02-1.5,5.12-2.98,10.24-4.51,15.35-.23.77-.18,1.08.78,1.05,1.89-.05,3.79-.04,5.68,0,.74.01,1.05-.06.87-.91-.38-1.71-.59-3.45-.88-5.17-.58-3.44-1.17-6.89-1.76-10.33Z"/>
  <path class="cls-2" d="m176.97,142.54c-1.07-.05-2.32.04-3.59-.15-3.3-.48-5.15-2.33-5.84-5.32-.27-1.16-.44-2.35-.61-3.53-.09-.61-.31-.87-1.03-.86-3.33.04-6.67.04-10,0-.76,0-.99.26-1.15.92-.59,2.48-1.3,4.94-1.86,7.42-.26,1.16-.9,1.6-2.12,1.53-1.89-.11-3.79.16-5.67-.24-3.02-.65-4.41-2.38-3.93-5.25.63-3.74,1.99-7.31,3.29-10.87,3.23-8.86,6.92-17.56,10.86-26.16,1.08-2.36,2.46-3.57,5.31-3.18,1.65.22,3.37.07,5.06.03,2.14-.04,3.72.85,4.85,2.52,1.21,1.78,1.62,3.82,2.14,5.82,2.81,10.92,5.89,21.79,8.36,32.79.23,1.01.44,2.02.44,3.07,0,1-.51,1.47-1.54,1.47-.93,0-1.86,0-2.98,0Zm-14.52-35.64l-.18.02c-1.5,5.12-2.98,10.24-4.51,15.35-.23.77-.17,1.08.78,1.05,1.89-.05,3.79-.04,5.68,0,.74.01,1.05-.07.86-.91-.37-1.71-.59-3.45-.88-5.17-.58-3.44-1.17-6.89-1.76-10.33Z"/>
  <path class="cls-3" d="m205.45,68.12c1.07-6.52,2.15-13.03,3.2-19.55.58-3.57,1.12-7.15,1.67-10.73.1-.84.63-1.24,1.46-1.53,6.34-2.24,12.78-3.19,19.41-1.33,4.47,1.25,8.03,3.77,10.88,7.21.33.4.46.77.26,1.3-4.33,11.22-8.63,22.44-12.94,33.66-.03.07-.09.14-.13.2-3.9-2.29-8.01-4.19-12.3-5.75-3.77-1.37-7.65-2.42-11.52-3.49Z"/>
  <path class="cls-3" d="m146.79,37.8c.58,3.37,1.15,6.74,1.74,10.11,1.16,6.58,2.33,13.16,3.5,19.74-8.42,2.35-16.4,5.6-23.7,10.25-4.41-11.44-8.81-22.88-13.21-34.32-.15-.38-.43-.74.02-1.19,3.69-3.65,7.78-6.72,13.13-7.88,4.85-1.06,9.63-.45,14.34.8.85.23,1.67.57,2.53.74,1.06.2,1.61.73,1.65,1.75Z"/>
  <path class="cls-2" d="m114.58,121.98c-.04,2.36.12,4.7,1.05,6.92.98,2.36,2.86,3.69,5.49,4.06,3.63.51,6.95-.25,9.9-2.33.91-.64,1.8-1.31,2.73-1.94.79-.53,1.74-.84,2.61-.36.82.45.77,1.37.7,2.17-.16,1.83-.51,3.63-1.06,5.39-.66,2.14-2.3,3.57-4.22,4.74-6.31,3.83-17.05,3.4-22.97-.94-3.76-2.76-5.78-6.54-6.51-10.86-1.27-7.51-.54-14.84,3.07-21.76,3.74-7.16,10.03-10.58,18.35-10.86,3.4-.11,6.73.23,9.88,1.57,5.3,2.25,7.95,7.4,6.53,12.71-.61,2.27-2.16,3.74-4.44,4.53-1.93.66-3.94.82-5.98.74-.99-.04-1.42-.46-1.43-1.41-.02-1.67.03-3.34-.25-5-.4-2.32-1.55-3.24-4.02-3.22-3.05.03-5.19,1.49-6.65,3.88-2.07,3.36-2.62,7.1-2.77,10.9-.01.36,0,.72,0,1.08Z"/>
  <path class="cls-2" d="m340.03,143.23c-4.67-.03-8.4-.76-11.89-2.41-.79-.37-1.54-.82-2.26-1.3-1.76-1.17-2.85-2.64-2.59-4.83.19-1.54.14-3.1.51-4.62.5-2.02,1.94-2.54,3.76-1.34,1.45.95,2.79,2.05,4.32,2.91,2.31,1.3,4.79,1.71,7.42,1.31,1.48-.23,2.77-.82,3.19-2.34.41-1.47-.18-2.65-1.73-3.66-1.96-1.27-4.21-1.99-6.39-2.83-2.54-.97-4.82-2.26-6.6-4.27-2.88-3.27-3.22-7.14-2.6-11.07,1.02-6.46,5.96-10.85,13.29-12.13,3.56-.62,7.13-.73,10.65.23,6.34,1.73,8.02,7.45,6.44,12.03-.95,2.76-3.32,3.86-6.19,4.2-.5.06-1.01.06-1.52.06-1.72,0-1.81-.11-1.94-1.74-.06-.83-.09-1.66-.36-2.48-.72-2.21-2.37-3.18-4.82-2.85-1.16.16-2.19.58-3.09,1.27-2.12,1.64-2.12,4.48.02,6.08,2.35,1.75,5.16,2.65,7.86,3.75,2.88,1.17,5.44,2.74,7.26,5.19,5.63,7.58.98,18.49-8.66,20.36-1.61.31-3.25.49-4.12.47Z"/>
  <path class="cls-2" d="m200.93,143.22c-3.97-.04-7.78-.77-11.32-2.53-.78-.39-1.54-.83-2.24-1.33-1.59-1.14-2.62-2.53-2.36-4.58.18-1.42.13-2.86.43-4.27.56-2.65,1.96-3.13,4.27-1.49,1.31.93,2.59,1.9,4.02,2.69,2.24,1.23,4.64,1.6,7.19,1.26,1.73-.23,3.07-1.18,3.3-2.38.31-1.59-.33-2.77-1.76-3.65-2.17-1.34-4.62-2.11-6.98-3.05-3.82-1.53-6.98-3.83-8.1-7.69-2.62-9.04,1.73-16.98,11.59-19.28,3.89-.91,7.83-1.08,11.76-.05,6.09,1.6,8.17,7.05,6.57,11.97-.91,2.81-3.32,3.96-6.25,4.29-.38.04-.76.05-1.14.05-2.09.04-2.15,0-2.31-2-.04-.44-.04-.88-.11-1.31-.45-2.81-2.35-4.17-5.2-3.72-3.05.48-4.87,2.6-4.43,5.1.22,1.21,1.05,1.96,2.04,2.6,2.27,1.48,4.85,2.37,7.37,3.38,2.88,1.16,5.44,2.74,7.26,5.2,5.62,7.6.95,18.49-8.71,20.34-1.61.31-3.24.5-4.9.46Z"/>
  <path class="cls-2" d="m306.57,96.88c3.84,0,7.68.03,11.52-.02,1.17-.01,1.61.36,1.44,1.48-.17,1.14-.16,2.3-.27,3.45-.3,2.94-1.61,4.09-4.74,4.12-2.91.03-5.82.03-8.73-.01-.81-.01-1.09.21-1.13.97-.15,2.42-.33,4.84-.57,7.26-.08.85.44.78,1,.78,2.66,0,5.32,0,7.98,0,1.64,0,1.85.23,1.71,1.73-.12,1.31-.16,2.62-.36,3.92-.34,2.19-1.56,3.23-3.89,3.34-1.98.09-3.96.12-5.94.09-.86-.01-1.2.22-1.25,1.04-.16,2.5-.34,5-.58,7.5-.08.84.24.98,1.03.97,4.39-.03,8.78-.02,13.17-.01,1.67,0,1.86.16,1.76,1.69-.09,1.43-.14,2.87-.44,4.27-.44,2.11-1.62,3.05-3.88,3.07-6.08.05-12.15.1-18.23-.02-3.97-.08-5.83-2.37-5.65-6.11.41-8.51,1.32-16.98,1.91-25.47.29-4.29.67-8.57.94-12.86.06-.98.54-1.18,1.45-1.18,3.92.02,7.85.01,11.77.01Z"/>
  <path class="cls-2" d="m241.45,96.88c4.98,0,9.96,0,14.94,0,1.58,0,1.76.19,1.63,1.65-.1,1.11-.12,2.23-.26,3.33-.38,2.95-1.67,4.02-4.83,4.05-2.19.02-4.39.03-6.58,0-.74-.01-1.09.08-1.15.93-.79,11.4-1.65,22.79-2.45,34.18-.08,1.16-.45,1.64-1.74,1.53-1.8-.15-3.63.14-5.43-.2-3.03-.57-4.51-2.19-4.54-5.14-.03-3.59.35-7.15.63-10.73.51-6.59,1.07-13.17,1.64-19.76.07-.76-.27-.83-.92-.82-3.08.02-6.16-.03-9.24.03-1.11.02-1.55-.33-1.45-1.38.15-1.58.06-3.19.49-4.74.53-1.89,1.97-2.94,4.06-2.94,5.07-.01,10.13,0,15.2,0Z"/>
  <path class="cls-1" d="m128.32,77.91c7.3-4.65,15.28-7.9,23.7-10.25,9.17-2.34,18.49-3.59,27.99-3.23,8.19.31,16.24,1.62,24.2,3.44.41.09.82.17,1.23.26,3.87,1.07,7.75,2.12,11.52,3.49,4.29,1.56,8.4,3.45,12.3,5.75,2.4,1.62,4.77,3.26,6.69,5.52-.19.04-.32.11-.39.08-6.53-3.14-13.6-4.64-20.73-5.89-10.28-1.8-20.66-2.93-31.08-3.66-8.66-.61-17.26-.11-25.85.91-12.1,1.44-23.78,4.4-35.16,8.48-.35.12-.68.34-1.09.21l.02.02c1.97-1.99,4.36-3.49,6.65-5.11Z"/>
  <path class="cls-4" d="m255.66,38.33c.05,1.47-.75,2.5-1.95,3.29-1.23.82-2.68,1.13-4.12,1.44-.82.18-1.01-.36-1.26-.86-1.92-3.73-4.63-6.83-8.3-9.14-5.43-3.42-11.49-4.43-17.87-3.96-6.01.44-11.66,2.07-16.77,5.17-.54.33-1,.27-1.53.02-4.06-1.9-4.71-5.9-1.37-8.78,2.43-2.1,5.45-3.32,8.34-4.68,7.05-3.32,14.28-6.28,21.54-9.18.86-.34,1.32-.23,1.91.41,6.3,6.91,12.67,13.77,18.77,20.83,1.37,1.58,2.53,3.29,2.61,5.44Z"/>
  <path class="cls-4" d="m157.13,29.61c-.22,2.06-1.51,3.62-3.51,4.74-.65.37-1.11-.02-1.6-.32-10.41-6.31-25.07-6.14-35.29.43-3.15,2.03-5.69,4.6-7.42,7.84-.33.61-.63.75-1.35.6-5.81-1.2-7.37-4.8-3.86-9.34,2.59-3.35,5.63-6.34,8.61-9.37,3.81-3.88,7.69-7.7,11.53-11.55.39-.39.7-.66,1.39-.41,8.64,3.15,17.25,6.37,25.41,10.56,1.75.9,3.43,1.88,4.71,3.36.83.95,1.34,2.01,1.37,3.46Z"/>
  <path class="cls-2" d="m272.94,142.54c-2.36-.12-5.29.28-8.17-.18-3.3-.53-4.87-2.49-4.69-5.62.57-10.09,1.51-20.15,2.34-30.22.23-2.77.4-5.56.53-8.34.04-.96.4-1.36,1.44-1.31,1.89.1,3.8-.16,5.68.14,3.13.5,4.62,2.07,4.5,5.08-.15,3.89-.5,7.78-.79,11.67-.46,6.19-.92,12.38-1.43,18.56-.07.89.11,1.23,1.16,1.21,3.46-.07,6.92-.03,10.38-.02,1.58,0,1.78.2,1.68,1.64-.09,1.23-.15,2.46-.28,3.69-.28,2.5-1.66,3.68-4.34,3.71-2.49.03-4.98,0-8.01,0Z"/>
  <path class="cls-1" d="m250.24,166.68c2.53,0,2.56,0,2.81-2.34.16-1.5.25-3.02.3-4.53.03-.75.27-1.13,1.11-1.02.21.03.42,0,.63,0,3.16,0,3.98.92,3.73,3.93-.43,5.07-.81,10.15-1.13,15.23-.07,1.04-.33,1.45-1.54,1.42-3.63-.07-4.21-.58-4.02-3.99.06-1.15.14-2.3.27-3.45.07-.66-.1-.96-.86-.93-1.22.04-2.45.04-3.67,0-.69-.03-.83.25-.87.83-.13,2.1-.36,4.2-.46,6.31-.04.91-.34,1.23-1.35,1.22-3.83-.01-4.45-.58-4.18-4.18.39-5.16.83-10.31,1.21-15.47.05-.73.33-.92,1.07-.94,3.98-.1,4.74.68,4.32,4.5-.09.79-.03,1.6-.14,2.38-.11.77.11,1.12.99,1.03.58-.06,1.18-.01,1.77-.01Z"/>
  <path class="cls-1" d="m60.5,168.22c-3.58-3.44-1.41-7.72,2.52-9.05,2.25-.76,4.54-.86,6.84-.34,2.3.52,3.41,2.03,3.19,4.09-.18,1.61-2.5,2.98-4.11,2.46-.48-.16-.42-.53-.52-.86-.38-1.24-1.21-1.78-2.4-1.6-1.27.2-2.2,1.33-2.13,2.59.06,1.14.8,1.84,2.18,1.86,3.08.05,6.16.01,9.24.05.61,0,1.53-.4,1.57.79.05,1.49-.29,2.22-1.42,2.24-1.12.02-1.33.42-1.45,1.39-.59,4.86-4.13,7.75-9.34,7.76-1.06,0-2.1,0-3.14-.24-2.38-.52-4.08-1.75-4.55-4.1-.48-2.37-.08-4.53,2.1-6.11.43-.31.9-.59,1.43-.93Zm6.1,2.32c-.51,0-1.01-.01-1.52,0-1.47.05-2.4.89-2.46,2.2-.06,1.35.88,2.36,2.32,2.5,1.59.16,2.92-.75,3.59-2.45.86-2.17.8-2.25-1.56-2.25-.13,0-.25,0-.38,0Z"/>
  <path class="cls-1" d="m225.47,176.41c-1.36,1.59-2.95,2.26-4.94,2.2-2.84-.09-4.66-1.52-4.87-4.18-.28-3.43.36-6.83.56-10.24.02-.35.19-.68.62-.82,2.63-.88,4.72.63,4.45,3.24-.18,1.7-.35,3.4-.53,5.1-.17,1.57.33,2.57,1.44,2.84,1.16.28,2.28-.37,2.97-1.73.91-1.81.86-3.79,1.1-5.72.1-.79.24-1.59.21-2.38-.05-1.22.59-1.43,1.72-1.41,2.71.06,3.53.77,3.36,3.31-.29,4.21-.6,8.41-.99,12.61-.29,3.03-2.4,5.09-5.61,5.64-2.23.39-4.45.35-6.63-.28-.77-.22-1.5-.53-2.13-1.02-.89-.69-1.42-1.54-.93-2.61.47-1.03,1.5-1.32,2.61-1.37.55-.03.81.31,1.12.65,1.81,2.05,4.98,1.6,6.04-.85.38-.88.58-1.79.46-2.97Z"/>
  <path class="cls-1" d="m91.82,166.87c1.93-2.4,3.68-4.57,5.42-6.75,1.66-2.09,2.6-2.06,4.15.13,1.11,1.57,1.11,2.15-.1,3.64-1.3,1.59-2.9,2.88-4.57,4.1-.57.41-.61.68-.22,1.24,1.77,2.47,3.46,4.99,5.24,7.45.51.71.42,1.2-.2,1.75-1.88,1.71-4.46,1.55-6.02-.41-1.42-1.78-1.98-3.93-2.75-5.99-.13-.34.03-1.02-.67-.89-.56.11-.83.53-.87,1.15-.11,1.98-.34,3.96-.44,5.94-.04.86-.35,1.15-1.29,1.15-3.83,0-4.5-.58-4.24-4.13.39-5.19.84-10.38,1.23-15.57.05-.67.3-.86.99-.89,3.96-.15,4.56.43,4.36,4.19-.06,1.19,0,2.38,0,3.9Z"/>
  <path class="cls-1" d="m122.87,177.49c-1.62,2.09-3.69,2.44-5.98,1.94-2.66-.58-3.84-2.48-4.27-4.81-.48-2.59-.16-5.15.96-7.59,1.35-2.91,4.41-4.45,7.75-3.89.92.15,1.78.46,2.48,1.26.13-1.73.35-3.47.37-5.2.02-1.09.39-1.55,1.55-1.37.29.04.59,0,.88,0,1.86.07,2.81.98,2.71,2.73-.18,3.02-.41,6.03-.64,9.05-.21,2.74-.47,5.47-.67,8.2-.12,1.54-.09,1.52-1.78,1.54-1.47.02-2.83-.1-3.35-1.87Zm-4.77-6.32c-.02,1.6.14,2.53.47,3.21.67,1.37,2.01,1.73,3.33.9.66-.42,1.06-1.02,1.29-1.72.49-1.51.62-3.04.26-4.59-.25-1.06-.84-1.85-2.05-1.97-1.17-.12-2.04.38-2.59,1.35-.56,1.01-.73,2.1-.71,2.82Z"/>
  <path class="cls-1" d="m159.36,158.79c1.14,0,2.28-.01,3.42,0,3.94.05,6.19,1.84,6.56,5.53.33,3.23-.42,6.19-3.41,8.25-1.81,1.24-3.91,1.45-6.04,1.24-1.1-.11-1.27.27-1.28,1.15-.01,1.15-.19,2.3-.24,3.45-.03.71-.35.93-1.09.95-3.61.1-4.4-.58-4.15-3.98.34-4.64.8-9.27,1.17-13.91.22-2.69.19-2.69,3.04-2.69.67,0,1.35,0,2.02,0Zm-.19,8.71s-.03,0-.05,0c0,.52.02,1.03,0,1.55-.02.4.2.55.57.65,1.2.32,2.68-.1,3.43-1.01,1-1.2,1.35-3.56.6-4.62-.85-1.21-2.18-.96-3.44-.88-.67.04-.9.32-.9.98,0,1.11-.13,2.22-.21,3.33Z"/>
  <path class="cls-1" d="m179.3,177.26c-1.63,2.09-3.81,2.68-6.31,2.23-2.85-.51-4.07-3.55-2.54-6.15.71-1.21,1.83-1.95,3.16-2.45,1.54-.57,3.16-.81,4.81-.89.5-.02,1.31.34,1.32-.61,0-.85.18-1.81-.93-2.26-1.22-.5-2.45.01-2.97,1.22-.62,1.44-.91,1.56-2.68,1.17-1.23-.28-1.95-1.2-1.79-2.38.18-1.41.97-2.47,2.3-3.09,2.79-1.3,5.71-1.37,8.58-.37,1.84.64,2.66,2.11,2.76,3.94.09,1.8-.22,3.57-.43,5.35-.14,1.13-.1,2.08,1.26,2.49.56.17.45.61.44.99-.05,1.51-1.17,2.8-2.67,3.1-2.06.41-3.3-.21-4.31-2.28Zm-2.74-1.54c1.32.01,2.96-1.68,2.85-2.83-.04-.4-.28-.45-.59-.43-1.06.09-2.1.24-2.96.89-.53.41-.76.94-.53,1.59.21.6.77.67,1.24.77Z"/>
  <path class="cls-1" d="m292.18,179.56c-2.71.04-5.11-.59-6.62-2.94-2.72-4.22-.04-11.42,4.88-13.06,1.92-.64,3.9-.66,5.85-.21,1.73.4,2.91,1.39,3.26,3.12.37,1.79-.12,3.35-1.62,4.5-1.88,1.44-4.14,1.89-6.51,1.93-1.5.03-1.74.38-1.06,1.66.85,1.58,3.07,1.92,4.38.67,1.12-1.07,1.86-1.13,2.85-.21.89.82.87,2.21-.1,3.09-1.09.99-2.49,1.29-3.93,1.45-.46.05-.93,0-1.39,0Zm-1.29-9.09c.82-.14,1.66-.23,2.4-.65.96-.55,1.27-1.46.73-2.21-.54-.75-1.58-.87-2.45-.24-.82.59-1.11,1.46-1.37,2.35-.18.62.06.81.69.74Z"/>
  <path class="cls-1" d="m137,179.59c-1.78,0-3.54-.19-5.16-.93-1.32-.6-1.62-1.46-1-2.63.61-1.14,1.31-1.34,2.71-.71,1.25.57,2.54.83,3.92.54.42-.09.84-.2.91-.7.06-.45-.17-.8-.55-1-.66-.34-1.35-.65-2.05-.92-3.14-1.22-4.43-2.84-4.14-5.26.33-2.71,2.11-4.34,5.39-4.81,1.37-.2,2.78-.22,4.14.16,1.57.43,2.51,1.42,2.73,2.95.27,1.82-1.71,3.43-3.58,2.98-.55-.13-.53-.54-.63-.91-.32-1.15-1.08-1.59-2.23-1.3-.66.16-1.2.46-1.31,1.14-.11.67.41,1.02.95,1.26.84.37,1.69.71,2.55,1.02,2.97,1.08,4.21,2.8,3.77,5.31-.39,2.25-2.58,3.75-5.54,3.8-.29,0-.59,0-.89,0Z"/>
  <path class="cls-1" d="m203.74,175.07c.2-2.3.36-4.6.63-6.89.09-.74-.04-1.08-.86-.98-.85.1-1.12-.22-1.02-1.02.15-1.32.04-2.74,2.05-2.87.35-.02.4-.37.5-.62.31-.78.69-1.54.92-2.35.33-1.15,1.11-1.44,2.26-1.31,1.13.12,1.57.81,1.81,1.72.05.19.05.39.06.59.12,1.99.12,2.02,2.33,1.98.98-.02,1.45.1,1.28,1.24-.36,2.43-.43,2.58-3,2.63-.55.01-1.09-.08-1.14.73-.13,2.1-.38,4.2-.5,6.3-.08,1.51.38,1.76,1.76,1.09,1.07-.52,1.44-.32,1.48.81.08,2.02-1.19,3.35-3.31,3.45-.71.04-1.45.06-2.15-.05-2.24-.34-3.2-1.75-3.1-4.45Z"/>
  <path class="cls-1" d="m194.08,165.2c1.22-1.37,2.5-2.2,4.27-2.11,1.34.07,2.37.6,2.9,1.78.69,1.52.43,2.97-.61,4.27-.86,1.07-2.09,1.25-3.42,1.11-.39-.04-.61-.25-.61-.63,0-.28.03-.56.02-.83-.02-.62.13-1.41-.72-1.59-.93-.2-1.36.51-1.65,1.19-.86,2-.63,4.15-.91,6.23-.16,1.22-.22,2.46-.29,3.69-.04.73-.33,1.12-1.16,1.06-.33-.03-.67,0-1.01,0-2.01-.03-2.94-.8-2.86-2.68.13-2.98.4-5.95.61-8.92.07-.99.19-1.98.2-2.98.02-1.09.46-1.51,1.69-1.47,1.52.05,2.86.2,3.53,1.9Z"/>
  <path class="cls-1" d="m276.39,165.2c1.22-1.37,2.5-2.2,4.27-2.11,1.34.07,2.37.59,2.9,1.77.69,1.52.43,2.97-.61,4.27-.85,1.07-2.09,1.25-3.41,1.11-.39-.04-.61-.25-.62-.63,0-.28.03-.56.02-.83-.03-.62.14-1.41-.71-1.6-.93-.2-1.36.51-1.65,1.18-.86,2-.63,4.15-.91,6.23-.16,1.22-.22,2.46-.29,3.69-.04.72-.32,1.13-1.15,1.06-.33-.03-.67,0-1.01,0-2.02-.03-2.94-.8-2.86-2.68.13-2.98.4-5.95.61-8.92.07-.99.19-1.98.2-2.98.02-1.09.45-1.52,1.68-1.47,1.52.05,2.87.2,3.54,1.9Z"/>
  <path class="cls-2" d="m235.54,5.95c.7-1.53,1.43-3.04,2.09-4.59.21-.5.6-.62,1.04-.75,4.84-1.43,8.09-.35,10.88,3.66.6.86,1.11,1.78,1.67,2.67,1.6,2.52,3.3,2.95,5.98,1.52.17-.09.31-.28.55-.18-.42,1.8-1.57,2.74-3.46,2.79-1.74.04-3.3-.57-4.81-1.29-1.51-.72-2.9-1.62-4.24-2.59-1.07-.77-2.2-1.44-3.48-1.9-2.2-.79-4.2-.44-6.09.79-.04-.04-.08-.08-.12-.12Z"/>
  <path class="cls-1" d="m104.19,175.91c.3-3.92.6-7.65.86-11.38.07-.92.44-1.39,1.48-1.21.25.04.51,0,.76,0,2.13.02,3.06.86,2.93,2.88-.22,3.53-.54,7.06-.83,10.59,0,.12-.05.23-.07.35q-.29,2.33-2.61,2.19c-1.75-.1-2.49-.93-2.51-2.79,0-.28,0-.56,0-.65Z"/>
  <path class="cls-1" d="m261.47,175.91c.3-3.91.59-7.63.86-11.37.06-.9.4-1.4,1.46-1.22.37.06.76,0,1.14.01,1.79.08,2.69.99,2.56,2.86-.23,3.57-.56,7.14-.85,10.71,0,.04-.02.08-.02.12q-.34,2.45-2.62,2.33c-1.79-.1-2.52-.93-2.53-2.89,0-.24,0-.48,0-.54Z"/>
  <path class="cls-2" d="m122.44,6.99c-2.62-1.64-5.03-.98-7.34.61-1.4.96-2.78,1.93-4.36,2.62-.96.42-1.95.77-3.01.83-1.72.1-2.7-.57-3.25-2.2.15-.21.28-.03.4.03,2.29,1.21,3.57.91,4.92-1.21.67-1.06,1.28-2.15,2.1-3.12,2.27-2.73,5.09-2.88,8.31-1.9.21.06.4.12.49.33.57,1.35,1.48,2.56,1.72,4.03l.02-.03Z"/>
  <path class="cls-2" d="m223.42,9.43c-2.62,1.55-5.03,3.04-7.45,4.73-1.03-2.64-2.04-5.18-3.35-7.86,3.78.81,7.23,1.83,10.79,3.13Z"/>
  <path class="cls-2" d="m176.09,2.01c3.74-.24,7.31-.22,11.11,0-.78.88-1.48,1.64-2.14,2.43-1,1.18-1.98,2.37-2.97,3.56-.23.27-.41.66-.81.13-1.59-2.09-3.33-4.06-5.19-6.12Z"/>
  <path class="cls-2" d="m138.33,9.47c3.55-1.29,7.03-2.3,10.77-3.12-1.16,2.49-2.23,4.81-3.12,7.2-.14.38-.31.55-.72.26-2.19-1.54-4.5-2.9-6.93-4.33Z"/>
  <path class="cls-2" d="m194.14,2.76c3.69.3,7.24.79,10.92,1.56-1.71,1.48-3.32,2.82-4.88,4.23-1.63,1.47-1.59,1.49-2.69-.36-1.07-1.79-2.19-3.55-3.34-5.43Z"/>
  <path class="cls-2" d="m156.77,4.34c3.72-.77,7.26-1.26,10.96-1.53-1.42,2.31-2.79,4.51-4.15,6.72-.19.31-.34.42-.64.13-1.91-1.82-3.95-3.52-6.17-5.32Z"/>
  <path class="cls-1" d="m108.43,157.6c1.81,0,2.6.57,2.6,1.87,0,1.49-1.24,2.42-3.21,2.43-1.86,0-2.62-.52-2.64-1.82-.03-1.57,1.16-2.49,3.26-2.49Z"/>
  <path class="cls-1" d="m265.04,161.9c-1.83,0-2.59-.55-2.59-1.87,0-1.56,1.2-2.44,3.32-2.44,1.77,0,2.57.61,2.54,1.93-.03,1.48-1.27,2.38-3.27,2.38Z"/>
  <path class="cls-2" d="m235.66,6.07c-.03.1-.06.22-.2.14-.02-.01.05-.17.08-.26.04.04.08.08.12.12Z"/>
  <path class="cls-2" d="m122.41,7.02c.06,0,.12,0,.18.01-.02.05-.04.09-.07.14-.03-.06-.06-.12-.09-.18,0,0-.02.03-.02.03Z"/>
  <path class="cls-1" d="m121.66,83c-.02.05-.03.11-.05.16-.17-.14.04-.1.07-.15,0,0-.02-.02-.02-.02Z"/>
</svg>